<svg fill="#FFF" height="800px" width="800px" version="1.1" id="Layer_1" xmlns="http://www.w3.org/2000/svg" xmlns:xlink="http://www.w3.org/1999/xlink" 
	 viewBox="0 0 512 512" xml:space="preserve">
<g>
	<g>
		<polygon points="255.989,169.478 165.685,320.006 346.315,320.006 		"/>
	</g>
</g>
<g>
	<g>
		<path d="M426.667,0H85.333C38.272,0,0,38.293,0,85.333v341.333C0,473.728,38.272,512,85.333,512h341.333
			C473.728,512,512,473.728,512,426.667V85.333C512,38.293,473.728,0,426.667,0z M402.56,351.851
			c-3.797,6.677-10.88,10.816-18.56,10.816H128c-7.68,0-14.784-4.139-18.56-10.816c-3.797-6.677-3.691-14.891,0.256-21.483
			l128-213.333c7.723-12.864,28.885-12.864,36.587,0l128,213.333C406.251,336.96,406.357,345.173,402.56,351.851z"/>
	</g>
</g>
</svg>